<?xml version="1.0" encoding="UTF-8"?>
<svg width="8px" height="5px" viewBox="0 0 8 5" version="1.1" xmlns="http://www.w3.org/2000/svg" xmlns:xlink="http://www.w3.org/1999/xlink">
    <title></title>
    <g id="blog-designs" stroke="none" stroke-width="1" fill="none" fill-rule="evenodd">
        <g id="Blog-Home" transform="translate(-879.000000, -231.000000)" fill="#1671FF" fill-rule="nonzero">
            <g id="sections" transform="translate(602.000000, 222.000000)">
                <g id="shape" transform="translate(277.000000, 9.000000)">
                    <path d="M6.33333333,-2 C6.67522389,-2 6.95700477,-1.74263987 6.99551485,-1.41108075 L7,-1.33333333 L7,3.33333333 C7,3.70152317 6.70152317,4 6.33333333,4 C5.99144277,4 5.70966189,3.74263987 5.67115182,3.41108075 L5.66666667,3.33333333 L5.66666667,-0.667164979 L1.66666667,-0.666666667 C1.32477611,-0.666666667 1.04299523,-0.924026793 1.00448515,-1.25558592 L1,-1.33333333 C1,-1.67522389 1.25736013,-1.95700477 1.58891925,-1.99551485 L1.66666667,-2 L6.33333333,-2 Z" transform="translate(4.000000, 1.000000) rotate(135.000000) translate(-4.000000, -1.000000) "></path>
                </g>
            </g>
        </g>
    </g>
</svg>