<?xml version="1.0" encoding="UTF-8"?>
<svg width="20px" height="19px" viewBox="0 0 20 19" version="1.1" xmlns="http://www.w3.org/2000/svg" xmlns:xlink="http://www.w3.org/1999/xlink">
    <title></title>
    <g id="Homepage" stroke="none" stroke-width="1" fill="none" fill-rule="evenodd">
        <g id="Mobile---Menu-Copy-4" transform="translate(-28.000000, -156.000000)" fill="#FFFFFF" fill-rule="nonzero">
            <g id="Group" transform="translate(12.000000, 142.000000)">
                <path d="M23.8911006,14 C28.2492352,14 31.7822013,17.5329661 31.7822013,21.8911006 C31.7822013,23.5457396 31.2729352,25.0814332 30.4025949,26.3499895 L34.8629405,30.7540657 C35.3565249,31.246614 35.3573649,32.0460325 34.8648166,32.5396169 C34.3722683,33.0332014 33.5728498,33.0340413 33.0792653,32.5414931 L33.0792653,32.5414931 L28.6604337,28.1783663 C27.3356881,29.1848348 25.6831556,29.7822013 23.8911006,29.7822013 C19.5329661,29.7822013 16,26.2492352 16,21.8911006 C16,17.5329661 19.5329661,14 23.8911006,14 Z M23.8911006,15.8938642 C20.5789184,15.8938642 17.8938642,18.5789184 17.8938642,21.8911006 C17.8938642,25.2032829 20.5789184,27.8883371 23.8911006,27.8883371 C25.5471918,27.8883371 27.0465009,27.2170736 28.1317872,26.1317872 L28.1592025,26.0929974 L28.1592025,26.0929974 L28.2511338,25.9903842 C28.2813949,25.9600594 28.3128144,25.9315946 28.3452501,25.9049897 C29.3047597,24.8430807 29.8883371,23.4352415 29.8883371,21.8911006 C29.8883371,18.5789184 27.2032829,15.8938642 23.8911006,15.8938642 Z" id="icon-search_active-copy"></path>
            </g>
        </g>
    </g>
</svg>