<svg width="79px" height="49px" viewBox="0 0 79 49" version="1.1" xmlns="http://www.w3.org/2000/svg" xmlns:xlink="http://www.w3.org/1999/xlink">
    <title></title>
    <g id="global/pull-quote/blog-pull-quotes-red" stroke="none" stroke-width="1" fill="none" fill-rule="evenodd">
        <g id="Group" transform="translate(0.500000, 0.500000)">
            <path d="M62.75,3 L63.0037536,3.003805 L63.2556129,3.01514763 C67.6041279,3.27645254 71.05,6.885813 71.05,11.3 L71.05,11.3 L71.049,28.253 L70.974971,28.2571573 L71.0383215,29.7397348 L71.0470775,30.0132058 L71.05,30.2875 L71.0462358,30.5980522 L71.034737,30.9122019 C70.7484548,36.7583296 66.4661977,41.5802729 60.8330676,42.652468 L60.8330676,42.652468 L60.576,42.698 L60.5759991,28.175 L45.874,28.175 L45.874,3 L62.75,3 Z M19.875,3 L20.1287536,3.003805 L20.3806129,3.01514763 C24.7291279,3.27645254 28.175,6.885813 28.175,11.3 L28.175,11.3 L28.174,28.253 L28.099971,28.2571573 L28.1633215,29.7397348 L28.1720775,30.0132058 L28.175,30.2875 L28.1712358,30.5980522 L28.159737,30.9122019 C27.8734548,36.7583296 23.5911977,41.5802729 17.9580676,42.652468 L17.9580676,42.652468 L17.701,42.698 L17.7009991,28.175 L2.999,28.175 L2.999,3 L19.875,3 Z" id="white-fill" fill="#FFFFFF" fill-rule="nonzero"></path>
            <path d="M62.75,-5.68434189e-14 C68.8933049,-5.68434189e-14 73.8916121,4.90231803 74.0463093,11.0083419 L74.05,11.3 L74.05,31.0968587 L74.028,31.097 L74.0202807,31.2570777 C73.5473525,38.9498889 67.4853084,45.1660965 59.7987261,45.8184883 L59.4635153,45.8433349 L59.1402245,45.8605057 L57.5760095,45.9275322 L57.575,31.175 L42.875,31.175 L42.875,-5.68434189e-14 L62.75,-5.68434189e-14 Z M19.875,-5.68434189e-14 C26.0183049,-5.68434189e-14 31.0166121,4.90231803 31.1713093,11.0083419 L31.175,11.3 L31.175,31.0968587 L31.153,31.097 L31.1452807,31.2570777 C30.6723525,38.9498889 24.6103084,45.1660965 16.9237261,45.8184883 L16.5885153,45.8433349 L16.2652245,45.8605057 L14.7010095,45.9275322 L14.7,31.175 L-3.69482223e-13,31.175 L-3.69482223e-13,-5.68434189e-14 L19.875,-5.68434189e-14 Z M62.75,3 L45.874,3 L45.874,28.175 L60.5759991,28.175 L60.576,42.698 L60.8330676,42.652468 C66.4661977,41.5802729 70.7484548,36.7583296 71.034737,30.9122019 L71.0462358,30.5980522 L71.05,30.2875 L71.0470775,30.0132058 L71.0383215,29.7397348 L70.974971,28.2571573 L71.049,28.253 L71.05,11.3 C71.05,6.885813 67.6041279,3.27645254 63.2556129,3.01514763 L63.0037536,3.003805 L62.75,3 Z M19.875,3 L2.999,3 L2.999,28.175 L17.7009991,28.175 L17.701,42.698 L17.9580676,42.652468 C23.5911977,41.5802729 27.8734548,36.7583296 28.159737,30.9122019 L28.1712358,30.5980522 L28.175,30.2875 L28.1720775,30.0132058 L28.1633215,29.7397348 L28.099971,28.2571573 L28.174,28.253 L28.175,11.3 C28.175,6.885813 24.7291279,3.27645254 20.3806129,3.01514763 L20.1287536,3.003805 L19.875,3 Z" id="outlines" fill="#1671FF" fill-rule="nonzero"></path>
            <path d="M69.1,7.625 C74.5123905,7.625 78.9,12.0126095 78.9,17.425 L78.9,35.8 L78.886954,35.8006983 C78.8956219,36.0035507 78.9,36.2075141 78.9,36.4125 C78.9,43.9872505 72.9216887,50.1656916 65.4260086,50.4868809 L65.426,35.8 L50.725,35.8 L50.725,7.625 L69.1,7.625 Z M26.225,7.625 C31.6373905,7.625 36.025,12.0126095 36.025,17.425 L36.025,35.8 L36.011954,35.8006983 C36.0206219,36.0035507 36.025,36.2075141 36.025,36.4125 C36.025,43.9872505 30.0466887,50.1656916 22.5510086,50.4868809 L22.551,35.8 L7.85,35.8 L7.85,7.625 L26.225,7.625 Z" id="halftone" fill="url(#blob_halftone-red)" opacity="0.8"></path>
        </g>
    </g>
</svg>