<?xml version="1.0" encoding="UTF-8"?>
<svg preserveAspectRatio="none" width="112px" height="24px" viewBox="0 0 112 24" version="1.1" xmlns="http://www.w3.org/2000/svg" xmlns:xlink="http://www.w3.org/1999/xlink">
    <title></title>
    <g id="highlight/small/B-red" stroke="none" stroke-width="1" fill="none" fill-rule="evenodd" fill-opacity="0.1">
        <path d="M43.4013431,1.64703851 L46.7975778,1.5153689 L50.1332352,1.39812238 L52.3230435,1.32807984 L55.5563473,1.23536223 L58.7274041,1.15765623 L61.8355879,1.09518255 L64.8802726,1.0481619 L67.860832,1.01681496 L70.7766402,1.00136245 L72.6842301,1 L75.4907281,1.01152864 L77.3248649,1.02835798 L79.1292957,1.05257848 L80.9038352,1.08425552 L82.6482977,1.1234545 C82.9365248,1.13061812 83.2234909,1.13809789 83.5091922,1.14589515 L86.04625,1.22467986 L87.6993687,1.28683702 L89.3216685,1.35677769 L90.9129637,1.43456727 L92.473069,1.52027115 L94.0017988,1.61395472 L95.4989676,1.71568338 L96.9643899,1.82552251 L98.3978801,1.94353752 L99.7992529,2.0697938 C100.030128,2.09152691 100.259658,2.11360614 100.487837,2.13603284 L101.840686,2.27477362 C102.063451,2.29859567 102.284858,2.32276791 102.504904,2.34729171 L103.808811,2.49866413 L105.079858,2.6585394 L106.317861,2.82698289 C107.13214,2.94214916 107.924265,3.06307118 108.693988,3.18983615 C109.171271,3.30449211 109.841593,3.55327577 110.704956,3.9361871 C111.568319,4.31909844 112,5.27637678 112,6.80802213 C111.136637,12.1687809 110.704956,15.6149829 110.704956,17.1466282 C110.704956,19.4440963 110.936098,22.8092464 109.409912,22.3159313 C109.227856,22.3629399 108.447594,22.1413281 107.069125,21.6510957 C106.930343,21.6230486 106.790057,21.595271 106.648276,21.5677625 L105.779687,21.4059358 L104.875519,21.2505433 L103.9361,21.1015623 L102.961759,20.9589699 C102.796478,20.9357357 102.629754,20.9127666 102.461597,20.8900624 L101.435493,20.7570105 L100.375291,20.6302905 L99.2813216,20.5098796 L98.1539135,20.3957553 L96.9933964,20.2878946 L95.1912618,20.1377985 L93.9494132,20.0454978 L92.6756087,19.9593813 L91.3701777,19.8794263 L90.0334496,19.80561 L88.6657539,19.7379099 L86.5568667,19.6477775 L85.1131933,19.595268 L82.8918839,19.5278152 L80.6046038,19.4738679 L78.2524648,19.4333493 L75.8365789,19.406183 L73.3580579,19.392292 L70.8180139,19.3915998 L68.2175587,19.4040297 L66.4509092,19.4195685 L62.8398623,19.467949 L59.1273479,19.5392486 L55.3160018,19.6332856 L52.3942193,19.7186255 L49.4194384,19.8165761 L45.3725437,19.9666614 L44.3467159,20.0076431 C24.5427905,20.8099438 24.9825123,20.7103982 6.81486655,22.2919465 C4.05088301,22.8498276 2.23720984,22.3629455 1.37384705,20.8313002 C0.0788028719,18.5338322 2.66889123,12.7901621 1.37384705,7.62085906 C0.652872939,4.74301617 3.85807313,4.08137772 4.64872044,4.01247043 C23.1822554,2.39721723 23.1233479,2.46854487 43.4013431,1.64703851 Z" id="highlight-instructor" fill="#FF6363" fill-rule="nonzero"></path>
    </g>
</svg>